PathFileType	4	(X/Y/Z)	..\data\2014004\dynamic\2014004_C5_01.trc
DataRate	CameraRate	NumFrames	NumMarkers	Units	OrigDataRate	OrigDataStartFrame	OrigNumFrames
100.000000	100.000000	4	52	mm	100.000000	0	143
Frame#	Time	L_IAS			L_IPS			R_IPS			R_IAS			L_FTC			L_FLE			L_FME			L_FAX			L_TTC			L_FAL			L_TAM			L_FCC			L_FM1			L_FM2			L_FM5			R_FTC			R_FLE			R_FME			R_FAX			R_TTC			R_FAL			R_TAM			R_FCC			R_FM1			R_FM2			R_FM5			CV7			TV10			SXS			SJN			L_SIA			L_SRS			L_SAA			L_SAE			L_HLE			L_HME			L_UOA			L_RSP			L_UHE			L_HM2			L_HM5			R_SIA			R_SRS			R_SAA			R_SAE			R_HLE			R_HME			R_UOA			R_RSP			R_UHE			R_HM2			R_HM5			
		X1	Y1	Z1	X2	Y2	Z2	X3	Y3	Z3	X4	Y4	Z4	X5	Y5	Z5	X6	Y6	Z6	X7	Y7	Z7	X8	Y8	Z8	X9	Y9	Z9	X10	Y10	Z10	X11	Y11	Z11	X12	Y12	Z12	X13	Y13	Z13	X14	Y14	Z14	X15	Y15	Z15	X16	Y16	Z16	X17	Y17	Z17	X18	Y18	Z18	X19	Y19	Z19	X20	Y20	Z20	X21	Y21	Z21	X22	Y22	Z22	X23	Y23	Z23	X24	Y24	Z24	X25	Y25	Z25	X26	Y26	Z26	X27	Y27	Z27	X28	Y28	Z28	X29	Y29	Z29	X30	Y30	Z30	X31	Y31	Z31	X32	Y32	Z32	X33	Y33	Z33	X34	Y34	Z34	X35	Y35	Z35	X36	Y36	Z36	X37	Y37	Z37	X38	Y38	Z38	X39	Y39	Z39	X40	Y40	Z40	X41	Y41	Z41	X42	Y42	Z42	X43	Y43	Z43	X44	Y44	Z44	X45	Y45	Z45	X46	Y46	Z46	X47	Y47	Z47	X48	Y48	Z48	X49	Y49	Z49	X50	Y50	Z50	X51	Y51	Z51	X52	Y52	Z52	

1	0	-204.0085906982422	920.6231689453127	-325.0676269531251	-402.8546142578126	957.9539794921877	-242.7055206298829	-400.4776000976564	952.7681884765627	-152.2188415527344	-197.6128692626954	938.1792602539065	-88.13655090332033	-308.8220520019532	867.5023193359377	-386.1647033691407	-417.202362060547	471.3162231445314	-324.8497314453126	-396.9304504394532	475.4333496093751	-202.1509246826172	-452.7951049804689	417.7328186035157	-328.8819885253907	-394.0969543457032	382.5376281738282	-261.4149780273438	-577.3681030273439	74.65972900390626	-278.1663818359376	-548.9880981445314	92.56975555419923	-184.9001770019532	-630.0323486328126	49.06098556518556	-222.8148803710938	-420.7054138183595	20.45429611206055	-199.3957061767579	-422.9776916503907	36.27869033813477	-256.8248901367188	-460.9589843750001	16.16969299316407	-307.8996582031251	-243.8826293945313	863.4058837890627	-20.83214759826661	-110.7215423583985	476.0408325195314	-57.46364593505861	-83.1240921020508	484.3250732421876	-183.7004547119141	-102.2057113647461	424.7386779785157	-56.67411041259767	-33.14430236816407	438.3930664062501	-99.9213562011719	9.715179443359377	73.31198883056642	-95.25359344482423	15.49137783050537	107.0241394042969	-186.7576293945313	-22.40094757080078	18.380521774292	-159.2143249511719	160.2403411865235	93.03447723388673	-171.4952239990235	145.3323211669922	102.9771575927735	-121.1317825317383	130.5909881591797	75.34645080566408	-75.07482910156251	-338.0558776855469	1443.348388671875	-222.1482391357422	-421.4094238281251	1219.525756835938	-221.1836090087891	-172.7706451416016	1167.813598632813	-214.5387573242188	-215.570541381836	1355.254272460938	-212.5241088867188	-410.7957763671876	1248.436157226563	-345.7930297851563	-385.8494262695314	1388.723999023438	-305.1455078125001	-339.2178344726563	1392.555419921875	-386.5118103027345	-267.3787231445313	1399.207275390625	-406.4076538085939	-265.1729125976563	1085.049072265625	-501.8742675781251	-293.5736389160157	1068.583740234375	-422.2938537597657	-297.4496459960938	1050.031982421875	-474.2775878906251	-32.5852165222168	946.1685791015627	-455.4061584472657	-88.90834045410158	903.8572387695315	-488.191619873047	36.72880935668946	903.9385986328127	-468.266082763672	-35.70808410644532	828.1187133789065	-474.1694335937501	-427.7086181640626	1243.236083984375	-107.0995254516602	-389.8726501464845	1385.235229492188	-135.9766235351563	-332.8196411132813	1397.130615234375	-53.70541381835939	-272.4833679199219	1394.195922851563	-31.94596862792969	-434.9998474121095	1118.254516601563	57.73202896118165	-453.9838867187501	1110.914672851563	-29.34047508239747	-475.310028076172	1116.486572265625	19.13130950927735	-432.8524780273439	844.3843994140627	60.63578033447267	-494.8052673339845	877.9370727539065	101.4299850463867	-461.3910522460939	751.0805053710939	77.3159866333008	-546.6593627929689	812.0942993164065	100.0666961669922	
2	0.01	-186.9606628417969	918.4802856445315	-325.4607849121094	-385.5975341796876	955.8484497070315	-242.1611328125001	-383.0706481933594	950.5881958007815	-151.769271850586	-179.994140625	936.037536621094	-88.16575622558595	-292.7517395019532	865.9481201171877	-386.0047607421876	-405.8896484375001	471.6782531738282	-325.3993530273438	-384.9077758789064	475.4092712402345	-202.6068115234376	-442.5628356933595	418.7626342773439	-329.3848876953126	-384.5048828125001	381.9439392089844	-261.8486022949219	-575.8409423828126	78.46663665771486	-279.4057006835938	-547.1276855468751	95.88658142089845	-186.1212005615235	-629.4952392578126	54.63413238525392	-224.1672668457032	-420.9480285644532	20.22921752929688	-199.4795074462891	-422.402313232422	35.90428924560548	-257.0799255371094	-461.0691223144532	15.56638240814209	-307.9798889160157	-226.3144226074219	861.2852172851565	-20.75056266784668	-94.06954193115236	474.0678100585939	-58.30171966552736	-67.48239898681642	482.5140991210939	-184.720199584961	-84.49603271484376	423.0072021484376	-57.33833694458009	-15.55593395233155	437.921112060547	-100.9805068969727	36.33833312988282	73.8429641723633	-94.96877288818361	40.99486541748048	107.3656845092774	-186.5468139648438	4.526157379150392	18.35484313964844	-158.6707153320313	186.260726928711	95.81595611572267	-172.0163879394532	171.6783294677735	105.5624618530274	-121.7443618774414	157.349349975586	77.39083099365236	-75.54627990722658	-321.3338012695313	1441.228393554688	-220.7851867675782	-404.5667114257814	1217.428833007813	-220.3475036621094	-155.853256225586	1165.78173828125	-213.6807098388672	-198.4724273681641	1353.2314453125	-211.3830108642579	-394.229217529297	1246.35791015625	-344.6020812988282	-369.3664550781251	1386.938720703125	-303.8564147949219	-322.7507934570313	1390.626953125	-385.274383544922	-251.1972808837891	1397.405395507813	-405.059295654297	-247.6083374023438	1083.829345703125	-502.0793457031251	-276.1445007324219	1066.392211914063	-422.7717285156251	-279.4911193847657	1047.963989257813	-474.790740966797	-12.15646171569825	950.8437500000002	-455.0832519531251	-67.00040435791017	907.1006469726565	-488.400115966797	58.41811370849611	910.8713989257815	-467.3914794921876	-11.43111991882324	832.6284790039065	-474.2168579101564	-411.0720520019532	1240.802490234375	-106.6011810302735	-373.4838562011719	1383.102172851563	-134.8034362792969	-316.4047546386719	1394.734619140625	-52.51107406616212	-256.1399230957032	1391.749633789063	-30.57315063476563	-419.5740966796876	1116.091918945313	58.21763229370119	-438.0774841308595	1108.662963867188	-28.96119689941407	-459.622772216797	1114.397705078125	19.35681343078614	-418.696258544922	842.355163574219	61.90941238403322	-480.8804626464845	876.3071289062502	102.0170593261719	-447.8587341308595	749.1079711914064	78.90518188476564	-533.0708007812501	810.6202392578127	100.5484466552735	
3	0.02	-169.6697998046875	916.7173461914065	-325.8444213867188	-368.0707702636719	954.087585449219	-241.5025329589844	-365.3937988281251	948.731628417969	-151.177230834961	-162.1766510009766	934.1697998046877	-88.24875640869142	-276.3895263671876	864.7168579101565	-385.8141174316407	-393.4866638183595	472.0404052734376	-326.1619873046876	-371.7856750488282	475.3421325683595	-203.2078247070313	-431.2474670410157	419.812469482422	-330.1306762695313	-373.8316955566407	381.3032836914063	-262.5464782714844	-573.8348388671876	82.82313537597658	-281.0251464843751	-544.8309936523439	99.67802429199222	-187.7217102050782	-628.4748535156251	61.11717987060548	-225.9011688232422	-421.5405883789064	19.94649887084961	-199.4963378906251	-422.0264587402345	35.35298156738282	-257.3043212890626	-461.3228759765626	14.86675643920899	-308.0788879394532	-208.3756713867188	859.5252075195315	-20.65551948547364	-77.14910888671876	472.4317016601564	-58.958553314209	-51.25107192993165	481.1658935546876	-185.4672241210938	-66.87407684326173	421.5233764648439	-57.85012054443361	1.943583846092225	437.2984619140626	-101.9134063720703	59.24733352661134	74.0127639770508	-94.83383941650392	63.06916427612306	107.2842254638672	-186.5380554199219	27.11019706726075	18.57152366638184	-158.221176147461	208.6684265136719	96.79496002197268	-172.7695770263672	194.4465789794922	106.3856735229492	-122.6094284057617	180.2523803710938	77.7755584716797	-76.27530670166017	-304.5648803710938	1439.366943359375	-219.2785034179688	-387.573211669922	1215.539672851563	-219.431381225586	-138.7570495605469	1164.105590820313	-212.6866760253907	-181.352767944336	1351.51220703125	-210.089096069336	-377.5281066894532	1244.551025390625	-343.2806091308594	-352.8052062988282	1385.403686523438	-302.4266052246094	-306.2047119140626	1388.978271484375	-383.8934326171876	-235.0053710937501	1395.950439453125	-403.608612060547	-230.245590209961	1082.944702148438	-502.113983154297	-258.9078674316407	1064.57763671875	-423.0601501464845	-261.7856445312501	1046.303833007813	-475.1251220703126	7.445101737976076	954.8913574218752	-454.6864013671876	-46.09132385253907	910.0275878906252	-488.5821228027345	79.04975891113283	916.8984985351565	-466.524139404297	11.44695472717285	836.6345825195315	-474.3967895507814	-394.311737060547	1238.559204101563	-105.9839935302735	-357.0293884277344	1381.153686523438	-133.5235290527344	-299.9702453613282	1392.541259765625	-51.19044113159181	-239.7763366699219	1389.549438476563	-29.08101463317872	-403.7719116210939	1113.91259765625	58.75839614868165	-421.8230285644532	1106.412963867188	-28.51362228393555	-443.5652770996095	1112.245849609375	19.66204452514649	-403.6495361328126	840.3151855468752	63.10027313232423	-466.1631774902345	874.515808105469	102.48876953125	-433.1973876953126	747.0596923828126	80.43257141113283	-518.5222167968751	808.8477783203127	100.8580703735352	
4	0.03	-152.1293640136719	915.369567871094	-326.1627807617188	-350.2872924804688	952.6933593750002	-240.7683410644532	-347.4749450683594	947.2296142578127	-150.472900390625	-144.1849975585938	932.6593017578127	-88.34546661376955	-259.6877746582032	863.7981567382815	-385.5951538085939	-379.8678283691407	472.3370056152345	-327.1384887695313	-357.4367675781251	475.1522521972657	-203.9529418945313	-418.7254028320314	420.8233337402345	-331.1232299804688	-361.9393615722657	380.5621948242188	-263.5471191406251	-571.1988525390626	87.78113555908205	-282.9717102050782	-541.9184570312501	103.9691696166992	-189.6662902832032	-626.7342529296876	68.60211181640626	-227.9408264160157	-422.5044555664064	19.65802574157715	-199.4285583496094	-421.9049072265626	34.6379737854004	-257.4645996093751	-461.7376403808595	14.16659736633301	-308.1580810546876	-190.0995330810547	858.1813964843752	-20.53293228149414	-59.93862533569337	471.1868591308595	-59.41637802124025	-34.36375427246094	480.3542785644532	-185.9002380371094	-49.29585266113283	420.3316955566407	-58.19612503051759	19.39475631713868	436.5709228515626	-102.6946411132813	78.53686523437501	73.74027252197267	-94.85726165771486	81.82296752929689	106.7057113647461	-186.74755859375	45.44941329956055	18.93568229675293	-157.8761291503907	227.5840148925782	95.8533401489258	-173.7495269775391	213.7385711669922	105.3453369140625	-123.7117462158203	199.4082031250001	76.44070434570314	-77.22487640380861	-287.7319335937501	1437.818603515625	-217.6204528808594	-370.4205627441407	1213.912353515625	-218.4490051269532	-121.4747467041016	1162.830322265625	-211.5715484619141	-164.2023010253907	1350.14404296875	-208.6387176513672	-360.6711425781251	1243.080444335938	-341.8527832031251	-336.1405029296876	1384.175415039063	-300.8600463867188	-289.5482177734376	1387.676025390625	-382.3672180175782	-218.7316589355469	1394.888671875	-402.0486755371095	-213.1139373779297	1082.451782226563	-501.9827575683595	-241.8728332519532	1063.217651367188	-423.1420898437501	-244.3715820312501	1045.122924804688	-475.2691345214845	26.23094367980958	958.248962402344	-454.2471008300782	-26.22649002075196	912.5716552734377	-488.7209777832032	98.627067565918	921.8825683593752	-465.7226562500001	32.84425354003907	840.0325927734377	-474.6778564453126	-377.4085388183594	1236.553588867188	-105.2397613525391	-340.4602966308594	1379.4228515625	-132.132064819336	-283.4860839843751	1390.5869140625	-49.73656082153322	-223.3614196777344	1387.62890625	-27.46759223937989	-387.563934326172	1111.745727539063	59.34473037719728	-405.189910888672	1104.20166015625	-28.00793266296387	-427.1074218750001	1110.067749023438	20.03817176818848	-387.7131347656251	838.285583496094	64.18712615966798	-450.6306457519532	872.590026855469	102.8405227661133	-417.4153137207032	744.9672241210939	81.87437438964845	-502.9877014160157	806.8242797851565	101.0085678100586	
